<?xml version="1.0" standalone="no"?>
<!DOCTYPE svg PUBLIC "-//W3C//DTD SVG 20010904//EN"
 "http://www.w3.org/TR/2001/REC-SVG-20010904/DTD/svg10.dtd">
<svg version="1.0" xmlns="http://www.w3.org/2000/svg"
 width="1029.000000pt" height="1029.000000pt" viewBox="0 0 1029.000000 1029.000000"
 preserveAspectRatio="xMidYMid meet">
<metadata>
Created by potrace 1.16, written by Peter Selinger 2001-2019
</metadata>
<g transform="translate(0.000000,1029.000000) scale(0.100000,-0.100000)"
fill="#000000" stroke="none">
<path d="M4795 9903 c-124 -8 -430 -46 -554 -68 -1960 -356 -3475 -1826 -3796
-3682 -45 -262 -59 -427 -59 -738 -1 -383 27 -618 109 -915 49 -179 176 -510
195 -510 4 0 76 71 162 157 241 246 352 408 487 715 118 267 144 346 305 943
58 215 123 442 145 507 310 898 1011 1671 1871 2064 322 147 651 241 1020 291
191 26 728 26 910 0 784 -111 1469 -445 2022 -985 1043 -1020 1358 -2537 807
-3885 -467 -1139 -1526 -1971 -2748 -2157 -296 -45 -687 -51 -971 -15 -504 64
-994 239 -1398 500 -68 44 -159 101 -202 126 -123 73 -389 257 -390 271 0 9
147 97 247 147 221 110 504 203 748 246 172 30 299 36 499 24 146 -9 212 -9
290 0 263 32 485 127 694 295 60 48 206 218 717 831 1349 1619 1759 2119 1773
2160 47 136 -100 266 -236 210 -26 -11 -420 -398 -1357 -1335 -750 -750 -1332
-1324 -1348 -1330 -40 -14 -113 -13 -145 4 -31 16 -74 61 -91 93 -14 27 -14
103 0 140 5 16 586 604 1334 1353 1400 1402 1345 1344 1345 1430 -1 73 -75
157 -149 167 -102 14 5 112 -1441 -1332 -940 -939 -1336 -1329 -1362 -1340
-141 -58 -287 66 -248 212 12 45 85 121 1336 1373 748 749 1328 1337 1333
1353 17 44 13 128 -7 167 -34 64 -141 98 -219 70 -16 -6 -598 -581 -1348
-1330 -936 -936 -1331 -1324 -1357 -1335 -148 -61 -302 84 -248 232 6 16 585
602 1335 1353 750 751 1329 1337 1335 1353 5 16 10 52 10 81 0 61 -25 107 -79
143 -44 30 -132 32 -178 4 -31 -19 -795 -652 -1783 -1475 -1105 -922 -1140
-953 -1249 -1115 -79 -120 -111 -182 -155 -309 -65 -188 -79 -343 -56 -612 37
-409 -127 -872 -458 -1300 -36 -47 -152 -173 -257 -280 -363 -371 -497 -547
-512 -670 -10 -83 2 -113 87 -219 156 -193 378 -410 611 -597 116 -92 397
-281 543 -365 759 -433 1700 -660 2636 -636 432 12 797 67 1198 183 1199 347
2240 1193 2839 2309 312 582 492 1192 554 1875 18 195 15 639 -5 845 -108
1098 -568 2089 -1334 2876 -811 833 -1887 1339 -3041 1429 -122 9 -591 11
-716 3z"/>
</g>
</svg>
