<?xml version="1.0" standalone="no"?>
<!DOCTYPE svg PUBLIC "-//W3C//DTD SVG 20010904//EN"
 "http://www.w3.org/TR/2001/REC-SVG-20010904/DTD/svg10.dtd">
<svg version="1.0" xmlns="http://www.w3.org/2000/svg"
 width="1000.000000pt" height="1000.000000pt" viewBox="0 0 1000.000000 1000.000000"
 preserveAspectRatio="xMidYMid meet">
<metadata>
Created by potrace 1.11, written by Peter Selinger 2001-2013
</metadata>
<g transform="translate(0.000000,1000.000000) scale(0.100000,-0.100000)"
fill="#000000" stroke="none">
<path d="M4809 9376 c-2 -2 -60 -7 -128 -11 -69 -4 -132 -8 -140 -10 -9 -1
-47 -6 -86 -9 -38 -4 -81 -9 -95 -11 -14 -2 -50 -7 -80 -10 -71 -8 -257 -40
-385 -66 -55 -11 -111 -23 -125 -25 -236 -46 -800 -221 -1025 -320 -16 -7 -83
-35 -147 -63 -540 -232 -1075 -566 -1468 -916 -88 -78 -276 -267 -330 -332
-30 -36 -60 -70 -66 -77 -30 -31 -138 -186 -183 -259 -246 -407 -258 -741 -38
-1065 101 -149 328 -352 517 -462 39 -23 69 -44 67 -46 -3 -3 -19 -7 -36 -9
-18 -2 -48 -6 -69 -9 -20 -3 -93 -13 -162 -21 -69 -9 -136 -18 -150 -20 -14
-2 -45 -6 -70 -10 -25 -3 -56 -8 -70 -10 -14 -2 -45 -6 -70 -9 -120 -14 -147
-17 -172 -22 -27 -5 -23 -11 199 -344 186 -279 224 -342 214 -354 -7 -8 -42
-22 -79 -31 -37 -8 -74 -17 -82 -20 -8 -2 -76 -18 -150 -35 -74 -17 -194 -45
-267 -63 l-132 -32 153 -155 154 -156 -28 -65 c-75 -177 -103 -388 -75 -569
13 -83 56 -214 98 -300 l42 -85 1 -285 c1 -304 12 -735 19 -760 2 -8 6 -36 9
-61 13 -98 81 -248 167 -366 97 -133 326 -330 507 -437 30 -17 68 -39 85 -50
41 -24 324 -166 331 -166 4 0 25 -9 49 -20 176 -81 627 -232 888 -295 35 -9
71 -17 79 -19 169 -42 462 -102 640 -131 19 -3 60 -10 90 -15 30 -5 71 -12 90
-14 19 -3 71 -10 115 -17 107 -15 119 -17 195 -24 36 -4 73 -9 82 -10 9 -2 52
-7 95 -10 43 -4 86 -9 97 -11 10 -2 51 -6 90 -9 39 -3 96 -8 126 -10 30 -3 93
-8 140 -10 47 -3 114 -8 150 -10 340 -23 1194 -23 1435 0 22 2 92 6 155 10 63
4 135 8 160 10 96 7 196 17 225 20 17 3 55 7 86 10 31 2 72 7 90 9 19 3 57 8
84 11 28 3 61 7 75 10 14 2 52 7 85 10 33 3 67 8 75 10 8 2 33 6 55 10 40 5
202 31 260 41 99 16 301 57 485 99 524 117 1097 327 1445 527 59 34 226 143
260 170 287 224 440 439 492 693 8 39 11 916 3 1020 -5 75 -3 84 26 146 45 94
82 205 97 295 13 75 15 278 3 334 -3 14 -8 39 -12 55 -47 227 -213 494 -434
698 l-62 58 79 82 c169 174 233 242 233 249 0 3 -31 18 -68 33 l-68 27 -1 92
c-1 177 -63 313 -212 464 l-44 45 44 36 c194 161 330 350 391 542 30 98 33
306 5 414 -73 278 -259 571 -553 871 -98 99 -251 242 -299 277 -5 4 -23 19
-38 33 -49 43 -257 196 -367 270 -104 70 -298 194 -304 194 -2 0 -43 23 -92
51 -88 51 -348 183 -454 232 -453 206 -943 365 -1434 463 -46 9 -313 54 -351
58 -22 3 -60 8 -85 11 -25 3 -61 8 -80 10 -19 3 -66 8 -105 10 -38 3 -95 8
-125 11 -63 7 -735 16 -741 10z"/>
</g>
</svg>
